<?xml version="1.0" standalone="no"?>
<!DOCTYPE svg PUBLIC "-//W3C//DTD SVG 20010904//EN"
 "http://www.w3.org/TR/2001/REC-SVG-20010904/DTD/svg10.dtd">
<svg version="1.0" xmlns="http://www.w3.org/2000/svg"
 width="310.000000pt" height="281.000000pt" viewBox="0 0 310.000000 281.000000"
 preserveAspectRatio="xMidYMid meet">

<g transform="translate(0.000000,281.000000) scale(0.100000,-0.100000)"
fill="#000000" stroke="none">
<path d="M1405 2410 c-352 -55 -660 -283 -809 -601 -183 -388 -112 -865 174
-1178 l41 -44 39 38 c22 22 40 43 40 48 0 5 -20 32 -43 60 -157 187 -230 386
-229 622 2 496 384 903 880 941 232 17 506 -73 671 -223 33 -29 63 -53 68 -53
5 0 26 18 48 40 45 46 46 45 -62 131 -125 99 -276 170 -438 205 -85 19 -298
26 -380 14z"/>
<path d="M1370 2230 c-209 -44 -398 -164 -526 -333 -60 -80 -128 -220 -155
-322 -31 -114 -31 -335 -1 -450 68 -252 242 -465 475 -580 139 -68 224 -88
392 -89 154 -1 231 13 359 66 78 32 216 121 260 167 l30 31 -39 40 c-22 22
-44 40 -50 40 -6 0 -22 -12 -36 -26 -35 -38 -132 -102 -203 -134 -281 -126
-615 -70 -841 142 -110 103 -184 224 -223 365 -120 430 157 876 601 967 42 9
94 16 117 16 l40 0 0 60 0 60 -57 -1 c-32 0 -96 -9 -143 -19z"/>
<path d="M1003 1826 c-98 -112 -161 -268 -170 -423 -21 -343 175 -637 502
-750 72 -24 94 -27 220 -28 120 0 151 3 215 23 130 41 206 87 306 187 75 74
99 106 136 182 64 127 82 213 76 366 -4 99 -10 137 -32 202 -28 81 -91 191
-146 255 l-30 34 -44 -43 -44 -43 43 -53 c53 -66 99 -159 121 -245 22 -88 15
-241 -16 -330 -67 -198 -230 -348 -436 -400 -141 -36 -294 -18 -427 52 -92 48
-215 174 -261 268 -106 217 -81 450 69 648 l48 63 -39 40 c-21 21 -41 39 -45
39 -4 0 -25 -20 -46 -44z"/>
<path d="M1576 1733 c-3 -15 -16 -102 -28 -193 l-23 -165 -7 84 c-4 46 -11 88
-17 94 -19 19 -40 -3 -57 -63 -12 -43 -20 -58 -27 -51 -7 7 -85 11 -214 11
l-203 0 0 -25 0 -25 189 0 189 0 12 -30 c18 -43 70 -54 70 -14 0 8 4 13 9 10
5 -3 12 -57 16 -119 7 -123 13 -141 41 -135 16 3 22 27 44 193 l25 190 8 -85
c9 -95 24 -122 51 -95 9 9 16 23 16 32 0 13 2 13 16 2 14 -12 20 -9 44 19 l26
32 182 0 182 0 0 25 0 26 -205 -3 c-186 -3 -205 -1 -205 14 0 26 -29 51 -45
38 -14 -12 -15 -6 -32 175 -7 72 -10 80 -30 83 -16 2 -22 -3 -27 -25z"/>
<path d="M1000 1314 c0 -122 61 -256 165 -359 114 -115 236 -165 397 -165 182
0 340 77 445 215 72 94 100 167 118 308 l6 47 -60 0 c-67 0 -64 5 -76 -91 -3
-25 -18 -72 -34 -105 -133 -277 -494 -340 -711 -124 -66 67 -117 171 -126 258
l-7 62 -58 0 -59 0 0 -46z"/>
</g>
</svg>
