<?xml version="1.0" standalone="no"?>
<!DOCTYPE svg PUBLIC "-//W3C//DTD SVG 20010904//EN"
 "http://www.w3.org/TR/2001/REC-SVG-20010904/DTD/svg10.dtd">
<svg version="1.0" xmlns="http://www.w3.org/2000/svg"
 width="512.000000pt" height="512.000000pt" viewBox="0 0 512.000000 512.000000"
 preserveAspectRatio="xMidYMid meet">
<metadata>
Created by potrace 1.15, written by Peter Selinger 2001-2017
</metadata>
<g transform="translate(0.000000,512.000000) scale(0.100000,-0.100000)"
fill="#000000" stroke="none">
<path d="M4608 2376 c-16 -19 -28 -38 -28 -41 0 -4 -20 -31 -45 -59 -25 -29
-45 -57 -45 -61 0 -4 -27 -38 -60 -75 -33 -37 -60 -72 -60 -78 0 -6 -6 -15
-13 -19 -7 -4 -20 -20 -29 -35 -10 -14 -26 -29 -37 -33 -14 -4 -21 -19 -26
-54 -4 -27 -13 -60 -20 -74 -7 -14 -16 -39 -20 -56 -4 -17 -10 -31 -15 -31 -4
0 -11 -16 -14 -35 -4 -19 -11 -35 -16 -35 -6 0 -10 -9 -10 -19 0 -11 -6 -26
-14 -33 -7 -8 -17 -24 -20 -36 -4 -12 -11 -22 -16 -22 -4 0 -11 -11 -14 -25
-4 -14 -11 -25 -16 -25 -6 0 -10 -4 -10 -9 0 -14 -52 -91 -62 -91 -4 0 -8 -7
-8 -15 0 -7 -6 -18 -13 -22 -8 -4 -24 -23 -38 -42 -32 -46 -169 -181 -183
-181 -6 -1 -22 -14 -36 -30 -13 -17 -30 -30 -37 -30 -7 0 -13 -4 -13 -8 0 -4
-22 -21 -50 -37 -27 -17 -50 -33 -50 -36 0 -4 -11 -10 -25 -13 -14 -4 -25 -11
-25 -16 0 -6 -7 -10 -15 -10 -8 0 -12 -6 -9 -13 2 -7 -4 -24 -16 -37 -11 -13
-20 -26 -20 -29 0 -5 -45 -57 -105 -122 -8 -9 -15 -19 -15 -24 0 -4 -20 -32
-45 -61 -25 -28 -45 -56 -45 -61 0 -5 -13 -22 -28 -39 -15 -16 -36 -42 -46
-58 l-18 -28 44 7 c23 4 48 11 53 15 6 4 26 11 45 15 19 4 40 11 45 15 6 4 25
11 43 15 18 4 45 13 60 21 15 8 33 14 40 14 6 0 12 5 12 10 0 6 6 10 14 10 21
0 144 65 157 83 3 5 10 9 15 9 19 1 54 18 54 27 0 5 11 12 25 15 14 4 25 11
25 16 0 6 7 10 15 10 7 0 18 6 22 13 4 7 19 20 33 29 14 8 36 25 50 37 14 12
45 38 69 59 51 43 141 133 189 189 66 78 75 89 91 113 18 28 22 34 51 69 11
13 20 30 20 37 0 7 4 14 9 16 17 6 151 270 151 297 0 6 4 11 9 11 6 0 13 20
17 45 3 25 10 45 15 45 4 0 11 20 15 45 3 25 10 45 14 45 4 0 11 26 15 58 4
31 11 59 15 62 4 3 13 51 18 107 6 56 15 110 21 122 6 11 11 63 11 115 0 108
-8 118 -52 62z"/>
<path d="M4129 902 c-57 -59 -93 -90 -141 -122 -21 -14 -38 -28 -38 -32 0 -5
-7 -8 -15 -8 -7 0 -18 -6 -22 -12 -11 -17 -69 -58 -83 -58 -5 0 -10 -3 -10 -7
0 -5 -10 -13 -23 -19 -12 -6 -62 -32 -112 -58 -49 -25 -96 -46 -102 -46 -7 0
-13 -4 -13 -10 0 -5 -16 -12 -35 -16 -19 -3 -35 -10 -35 -15 0 -4 -16 -11 -35
-15 -19 -3 -37 -10 -40 -14 -3 -5 -23 -11 -45 -15 -22 -4 -40 -10 -40 -15 0
-4 -35 -13 -77 -20 -42 -6 -86 -16 -97 -20 -12 -5 -42 -12 -68 -15 -27 -3 -48
-12 -48 -18 0 -7 -23 -37 -50 -67 -27 -30 -50 -59 -50 -64 0 -5 -16 -28 -35
-52 -19 -23 -35 -46 -35 -50 0 -3 -11 -17 -25 -30 -13 -12 -27 -34 -31 -49 -7
-27 -6 -27 32 -22 21 4 98 11 169 18 72 6 132 14 135 19 3 4 34 10 70 14 36 4
69 11 75 16 5 4 31 11 58 14 26 4 47 11 47 15 0 5 23 11 50 15 28 4 50 11 50
15 0 5 18 12 40 16 22 4 40 10 40 15 0 4 16 11 35 14 19 4 35 11 35 15 0 5 12
12 28 15 49 12 261 121 282 146 3 3 16 11 30 18 29 14 63 34 70 42 3 3 21 17
40 30 19 13 39 30 43 37 4 7 15 13 22 13 8 0 15 4 15 10 0 5 12 16 28 24 15 8
60 46 100 85 39 39 77 71 82 71 24 0 4 28 -80 111 -49 49 -94 98 -100 109 -17
31 -41 23 -91 -28z"/>
</g>
</svg>
